<?xml version="1.0" encoding="UTF-8"?>
<svg id="Laag_2" data-name="Laag 2" xmlns="http://www.w3.org/2000/svg" viewBox="0 0 638.51 367.58">
  <defs>
    <style>
      .cls-1, .cls-2 {
        stroke-width: 0px;
      }

      .cls-2 {
        fill: #f7931e;
      }
    </style>
  </defs>
  <g id="Laag_1-2" data-name="Laag 1">
    <g>
      <path class="cls-1" d="m551.23,365.83c-13.12-1.44-25.68-4.25-37.34-8.35l-15.24-5.36-6.07-58.37,5.51-11.88c-4.42,1.5-9.23,3.16-14.39,4.99l-38.16,13.52,1.87-17.62-6.04,7.67-16.95-5.55c-2.78-.91-5.39-1.81-7.86-2.71v2.73l-5.42,6.93c-39.17,50.02-72.2,73.32-103.95,73.32-29.6,0-60.1-16.61-93.11-50.74-16.05,15.97-30.77,27.39-44.86,34.83-20.21,10.78-40.79,16.25-61.15,16.25s-40.2-6.44-56.1-19.15c-15.51-12.19-24.65-23.37-28.7-35.14-2.39-6.44-5.08-13.29-7.98-20.36l-.07-.18c-8-19.95-9.92-25.02-10.67-27.11l-4.53-12.62,7.83-10.89c7.58-10.54,17.65-23.35,29.94-38.09l25-29.99,17.42,34.94c11.94,23.95,24.08,39.9,36.09,47.41,12.17,7.56,24.55,11.25,37.85,11.25,5.69,0,10.99-.79,16.12-2.41.04-.11.09-.23.14-.34l-38.93-46.23,8.23-15.27c3.53-6.56,10.24-17.78,20.49-34.3l18.07-29.12,22.71,25.67c.28.32.56.62.84.93.66-5.64,1.19-11.07,1.58-16.2.54-7.18.81-14.56.81-21.95,0-2.12-.06-4.26-.18-6.41-5.05,2.92-9.74,5.81-13.99,8.64l-21.93,14.62-32.77-52.83,15.91-14.27c25.17-22.58,45.54-39.15,62.27-50.63,25.01-17.16,35.61-20.61,44.61-20.61,12.34,0,29.61,5.31,41.75,30.61l.14.3c6.63,14.36,9.98,30.29,9.98,47.39,0,1.24-.02,2.5-.05,3.76,6.48-11.21,13.29-23.55,20.37-36.89l3.32-6.27,6.08-3.65c5.27-3.16,12.8-8.53,22.39-15.95l.33-.26,19.08-13.78c7.12-5.06,14-7.7,21.08-8.07l37.49-2-11.94,35.59c-5.43,16.18-13.66,35.38-24.46,57.05-10.82,21.78-21.62,40.14-32.1,54.56-10.4,14.35-25.07,30.14-43.59,46.93-11.91,10.77-25.95,22.34-41.8,34.47,8.95,6.5,17.61,12.49,25.87,17.9l6.94-7.91c7.34-8.38,15.04-16.54,22.86-24.27,7.58-7.48,15.4-14.98,23.24-22.29l13.35-12.44c1.26-14.8,4.74-28.05,10.33-39.43,6.67-13.8,19.46-29.98,39.07-49.44l11.12-11.03,14.45,4.78c1.01.27,5.32,1.36,22.66,5.37,19.85,4.42,26.89,6.76,30.45,8.14l.63.24.61.27c7.42,3.33,14.31,8.41,20.46,15.1.93,1.02,1.83,2.08,2.7,3.2.06-.33,3.73-20.21,3.73-20.21l2.12-.17c-5.49-9.15-8.26-19.59-8.26-31.11,0-14.46,4.38-27.21,13.01-37.89,9.81-12.13,22.78-18.55,37.51-18.55,9.95,0,24.46,3.1,37.06,17.84,9.02,10.55,13.6,23.54,13.6,38.6,0,8.6-1.56,16.62-4.64,23.95l13.47-1.09-5.37,32.26c-2.54,15.25-4.31,26.1-5.11,31.36-.78,5.07-1.75,12.14-2.88,21-1.55,13.76-2.78,29.42-3.65,46.45-1.35,24.58-2.81,40.89-4.47,49.89-1.82,9.99-5.22,20.41-10.08,30.94l-.13.29c-4.8,10.03-14.97,27.53-31.11,53.56l-8.48,13.67-15.99-1.76Z"/>
      <path class="cls-2" d="m619.11,91.43c5.9-8.81,8.89-19.03,8.89-30.45,0-13.67-4.12-25.42-12.24-34.91-11.2-13.11-23.99-15.86-32.75-15.86-12.96,0-24.4,5.69-33.1,16.44-7.8,9.64-11.75,21.19-11.75,34.33s3.93,24.62,11.69,34.25c.47.59.93,1.15,1.41,1.7l-7.84.64-2.76,14.95c-.94,5.07-1.77,10.78-2.52,17.18-2.59-6.49-5.96-12.06-10.11-16.58-5.62-6.12-11.88-10.75-18.6-13.76l-.47-.21-.48-.19c-3.39-1.31-10.15-3.55-29.68-7.9-17.92-4.14-22.08-5.2-23.02-5.46l-11.3-3.74-8.65,8.58c-19.15,19-31.57,34.67-37.98,47.92-5.57,11.32-8.9,24.59-9.94,39.57l-14.97,13.94c-7.8,7.27-15.58,14.73-23.12,22.17-7.73,7.64-15.33,15.71-22.59,23.98l-6.41,7.31,1.47,7.6c-12.95-8.09-26.84-17.62-41.61-28.56,18.24-13.72,34.14-26.7,47.48-38.75,18.24-16.53,32.65-32.04,42.82-46.06,10.3-14.16,20.94-32.25,31.61-53.75,10.68-21.44,18.81-40.39,24.16-56.33l9.29-27.68-29.16,1.56c-5.97.32-11.88,2.61-18.06,7.01l-19,13.72-.26.2c-9.76,7.55-17.48,13.05-22.94,16.33l-4.73,2.84-2.58,4.88c-12.11,22.83-23.39,42.64-33.63,59.05,1.76-10.12,2.64-19.63,2.64-28.57,0-16.28-3.18-31.41-9.44-44.97l-.13-.27c-10.87-22.64-25.93-27.39-36.64-27.39-7.91,0-17.6,3.28-41.4,19.62-16.53,11.34-36.71,27.75-61.69,50.17l-12.37,11.1,27.18,43.82,17.06-11.37c6.47-4.31,13.82-8.7,21.98-13.14.66,5.26,1,10.47,1,15.62,0,7.53-.28,15.06-.83,22.38-.56,7.45-1.42,15.5-2.53,23.92-.14,1.08-.29,2.16-.45,3.25-3.21-2.3-6.31-5.15-9.33-8.57l-17.66-19.96-14.06,22.65c-10.18,16.41-16.83,27.53-20.32,34l-6.4,11.88,38.62,45.86c-.95,2.42-1.72,4.37-2.35,5.93-6.49,2.39-13.23,3.56-20.43,3.56-14.39,0-27.77-3.97-40.86-12.11-12.91-8.07-25.75-24.79-38.16-49.69l-13.55-27.18-19.45,23.32c-12.2,14.63-22.19,27.34-29.69,37.77l-6.09,8.47,3.53,9.82c.73,2.05,2.63,7.06,10.59,26.9l.06.15c2.94,7.16,5.66,14.09,8.08,20.61,3.67,10.71,12.23,21.09,26.9,32.62,14.86,11.88,32.55,17.91,52.56,17.91s39.11-5.25,58.51-15.6c14.69-7.75,30.37-20.24,47.59-37.96,33.4,35.77,63.97,53.22,93.03,53.22s61.48-22.61,99.49-71.15l4.22-5.39v-6.84c0-.72-.01-1.46-.02-2.19,4.51,1.85,9.59,3.71,15.32,5.58l13.18,4.32,8.58-10.9c2.49-3.16,4.88-6.21,7.17-9.14l-3,28.26,29.68-10.51c11.55-4.09,20.29-7.01,26.92-9.09l-10.35,22.3,5.54,53.24,11.86,4.17c11.26,3.96,23.4,6.67,36.08,8.06l12.44,1.37,6.59-10.63c16.03-25.85,26.1-43.18,30.8-52.98l.12-.25c4.67-10.11,7.92-20.08,9.66-29.59,1.62-8.75,3.05-24.81,4.38-49.15.88-17.14,2.12-32.92,3.69-46.88,1.14-8.91,2.12-16.02,2.9-21.13.81-5.31,2.59-16.18,5.12-31.43l4.18-25.09-16.6,1.35Z"/>
      <path class="cls-1" d="m175.66,101.78l-7.61-12.27c24.1-21.63,43.99-37.82,59.67-48.58,15.68-10.76,25.73-16.14,30.17-16.14,7.34,0,13.59,5.38,18.76,16.14,5.07,10.98,7.61,23.2,7.61,36.64,0,29.36-11.24,67.46-33.71,114.3,8.61-3.7,18.19-11.18,28.75-22.44,10.56-11.26,21.79-26.08,33.71-44.46,11.92-18.38,25.12-41.24,39.62-68.58,6.16-3.7,14.45-9.58,24.87-17.65l18.62-13.45c2.99-2.13,5.53-3.25,7.61-3.36-5.08,15.13-12.78,33.06-23.11,53.79-10.24,20.62-20.21,37.6-29.9,50.93-9.42,13-22.79,27.34-40.1,43.03-17.85,16.14-40.28,33.84-67.28,53.12,38.96,30.59,72.58,52.61,100.85,66.06-1-9.64-3.08-22.64-6.25-39,6.98-7.96,14.18-15.6,21.61-22.94,7.43-7.34,15-14.59,22.7-21.77,5.71,24.54,8.56,46.34,8.56,65.39-33.17,42.36-61.12,63.54-83.86,63.54-26.82,0-57.72-21.01-92.7-63.04-21.57,24.65-40.64,41.35-57.22,50.09-16.58,8.85-32.98,13.28-49.2,13.28s-28.91-4.54-40.23-13.62c-11.42-8.97-18.26-16.87-20.52-23.7-2.54-6.84-5.35-14.01-8.43-21.51-5.8-14.46-9.24-23.2-10.33-26.22,7.25-10.09,16.85-22.3,28.82-36.64,14.14,28.35,29.27,47.57,45.4,57.66,16.22,10.09,33.34,15.13,51.38,15.13,12.59,0,24.47-2.8,35.61-8.4,1.09-2.13,4.39-10.37,9.92-24.71l-37.51-44.55c3.26-6.05,9.83-17.03,19.71-32.95,11.6,13.11,24.87,20.51,39.82,22.19,1.81-9.41,3.31-18.55,4.49-27.4,1.18-8.85,2.06-17.2,2.65-25.04.59-7.84.88-15.8.88-23.87,0-14.79-2.31-29.75-6.93-44.88-18.49,8.74-34.12,17.37-46.89,25.89Z"/>
      <path class="cls-1" d="m445.59,103.29c1.36.45,9.56,2.41,24.6,5.88,13.59,3.03,22.56,5.38,26.91,7.06,4.26,1.91,8.29,4.93,12.1,9.08,3.81,4.15,6.66,9.98,8.56,17.48,1.9,7.4,2.85,17.43,2.85,30.09l-.68,49.42c0,5.83.45,12.66,1.36,20.51-8.43,1.68-23.88,6.5-46.35,14.46,1.63-15.35,2.45-36.48,2.45-63.37-1.54,3.14-6.03,9.75-13.46,19.84-7.43,10.09-18.03,23.87-31.81,41.35-10.6-3.47-18.76-6.84-24.47-10.09-.36-4.26-1.09-10.87-2.17-19.84-1.54-14.01-2.31-26.67-2.31-37.99,0-16.36,2.76-30.14,8.29-41.35,5.35-11.09,16.72-25.27,34.12-42.53Zm-.54,40.51l2.99,66.06c4.98-6.83,9.92-14.54,14.82-23.11,4.89-8.57,9.06-16.61,12.5-24.12-4.98-8.85-15.09-15.13-30.31-18.83Z"/>
      <path class="cls-1" d="m555.96,114.89l51.79-4.2c-2.63,15.8-4.35,26.36-5.17,31.69-.82,5.32-1.81,12.58-2.99,21.77-1.63,14.46-2.9,30.54-3.81,48.24-1.27,23.2-2.63,38.72-4.08,46.56-1.45,7.96-4.17,16.25-8.16,24.88-4.35,9.08-14.27,26.11-29.77,51.1-11.24-1.23-21.79-3.59-31.67-7.06l-3.67-35.3,13.19-28.41,16.31,9.75c.63-11.32,1.09-29.08,1.36-53.28.27-25.89.97-47.4,2.11-64.55,1.13-17.15,2.65-30.87,4.55-41.18Zm22.83-86.06c6.7,0,12.59,2.97,17.67,8.91,4.98,5.83,7.48,13.17,7.48,22.02s-2.45,15.8-7.34,21.85c-4.98,6.16-10.92,9.24-17.8,9.24s-12.78-3.08-17.67-9.24c-4.89-6.05-7.34-13.33-7.34-21.85s2.45-15.8,7.34-21.85c4.89-6.05,10.78-9.08,17.67-9.08Z"/>
    </g>
  </g>
</svg>