<?xml version="1.0" encoding="UTF-8"?>
<svg width="423px" height="121px" viewBox="0 0 423 121" version="1.1" xmlns="http://www.w3.org/2000/svg" xmlns:xlink="http://www.w3.org/1999/xlink">
    <!-- Generator: Sketch 52.6 (67491) - http://www.bohemiancoding.com/sketch -->
    <title>Path</title>
    <desc>Created with Sketch.</desc>
    <g id="Page-1" stroke="none" stroke-width="1" fill="none" fill-rule="evenodd" stroke-opacity="0.75">
        <path d="M30.0914405,95.0727527 C113.809171,105.793254 194.434129,73.1341436 278.305866,57.9805477 C316.844153,51.0176107 419.897949,-23.3872786 394.107476,43.8040879 C366.771348,115.022318 312.718833,66.1815099 271.909486,74.6448993 C190.549637,91.5179967 109.115847,75.960743 27.8934118,93.2362362 C23.7277982,94.1222356 12.4079101,100.760701 16.2907666,104.391038 C21.4698409,109.233295 27.2246001,98.7456857 32.7895498,97.8139571 C80.6761804,89.796393 128.707686,86.7114834 176.556908,77.5579944 C298.873035,54.1590909 285.066606,38.9926475 404.225386,31.8712542 C421.165077,30.8588722 370.553966,40.9950555 353.662973,44.1569162 C264.706972,60.8087779 175.072981,62.2981948 86.70134,91.3092509 C78.0356516,94.1540637 222.931411,91.0797823 258.298765,86.2520454 C284.624512,82.6585117 310.968529,79.121049 337.202956,72.871711 C357.479686,68.0415638 377.819466,62.9302937 397.755351,53.0319048 C404.814665,49.526877 383.299982,52.2452883 376.104575,53.5566238 C344.013878,59.4050303 312.061531,69.0714928 279.957295,74.5001492 C252.195911,79.1944524 224.327173,79.6776254 196.552379,83.9179506 C168.833472,88.1497435 141.218076,95.6432291 113.500233,99.9128331 C97.4333851,102.38774 81.3193356,102.735459 65.2288869,104.146773" id="Path" stroke="#FFC038" stroke-width="30"></path>
    </g>
</svg>